<svg width="400" height="220" viewBox="0 0 400 220" fill="none" xmlns="http://www.w3.org/2000/svg">
<rect width="400" height="220" fill="#1B1F23"/>
<rect x="115" y="25" width="170" height="170" fill="#1B1F23" stroke="#79B8FF"/>
<circle cx="130.597" cy="117.49" r="3.66652" stroke="#C8E1FF"/>
<circle cx="255.666" cy="92.6387" r="7.33303" fill="#1B1F23" stroke="#C8E1FF"/>
<rect x="222.26" y="161.673" width="20.3695" height="16.2956" fill="#044289"/>
<rect x="205" y="162" width="12" height="16" fill="#044289"/>
<rect x="258.925" y="161.673" width="28.5173" height="16.2956" fill="#044289"/>
<rect x="106" y="66" width="49" height="17" fill="#005CC5"/>
<path d="M165.632 51.8996C220.5 29.5 263.42 80.2095 206 99C148.58 117.791 174.28 166.185 222.259 136.23C253 117.037 262.499 142.847 249.962 152.118" stroke="#C8E1FF"/>
<path d="M241.203 61.677L238.555 56.7883L241.203 51.8997L246.499 51.8997L249.147 56.7883L246.499 61.677H241.203Z" stroke="#2188FF" stroke-width="2" stroke-linecap="round" stroke-linejoin="round"/>
<path d="M157.892 170.45L151.374 170.45L154.633 164.747L157.892 170.45Z" stroke="#2188FF" stroke-width="2" stroke-linejoin="round"/>
<path d="M228.37 111.379C226.293 111.379 226.293 107.305 224.215 107.305C222.137 107.305 222.137 111.379 220.059 111.379C217.982 111.379 217.982 107.305 215.904 107.305C213.826 107.305 213.826 111.379 211.749 111.379C209.671 111.379 209.671 107.305 207.593 107.305" stroke="#2188FF" stroke-width="2" stroke-linecap="round" stroke-linejoin="round"/>
<path fill-rule="evenodd" clip-rule="evenodd" d="M151.954 65H145.75C144.784 65 144 64.2165 144 63.25V51.75C144 50.7835 144.784 50 145.75 50H164.25C165.216 50 166 50.7835 166 51.75V63.25C166 64.2165 165.216 65 164.25 65H158.046C158.217 66.3751 158.851 67.6522 159.815 68.7568C160.008 68.9784 160.054 69.2926 159.933 69.5604C159.811 69.8281 159.544 70 159.25 70H150.75C150.456 70 150.189 69.8281 150.067 69.5604C149.945 69.2926 149.991 68.9784 150.185 68.7568C151.149 67.6522 151.783 66.3751 151.954 65ZM164.5 51.75V63.25C164.5 63.3881 164.388 63.5 164.25 63.5H145.75C145.612 63.5 145.5 63.3881 145.5 63.25V51.75C145.5 51.6119 145.612 51.5 145.75 51.5H164.25C164.388 51.5 164.5 51.6119 164.5 51.75ZM156.537 65C156.662 66.2662 157.101 67.445 157.76 68.5H152.24C152.899 67.445 153.337 66.2662 153.463 65H156.537Z" fill="#79B8FF"/>
<path fill-rule="evenodd" clip-rule="evenodd" d="M248.544 149.734C247.683 148.873 246.228 149.132 245.718 150.238L245.105 151.565C244.953 151.895 244.744 152.196 244.486 152.453C244.083 152.856 243.576 153.14 243.021 153.272L240.567 153.856C239.235 154.173 238.767 155.828 239.735 156.796L241.939 159L238.22 162.72C237.927 163.013 237.927 163.487 238.22 163.78C238.513 164.073 238.987 164.073 239.28 163.78L243 160.061L245.204 162.265C246.172 163.233 247.827 162.765 248.144 161.433L248.728 158.979C248.86 158.424 249.144 157.917 249.547 157.514C249.804 157.256 250.105 157.047 250.435 156.895L251.762 156.282C252.868 155.772 253.127 154.317 252.266 153.456L248.544 149.734ZM247.08 150.866C247.153 150.709 247.361 150.671 247.484 150.794L251.206 154.516C251.329 154.639 251.291 154.847 251.134 154.92L249.806 155.533C249.315 155.759 248.869 156.071 248.486 156.453C247.887 157.052 247.466 157.806 247.269 158.631L246.685 161.085C246.64 161.276 246.403 161.343 246.265 161.204L240.796 155.735C240.657 155.597 240.724 155.36 240.915 155.315L243.369 154.731C244.194 154.534 244.948 154.113 245.547 153.514C245.929 153.131 246.241 152.685 246.467 152.194L247.08 150.866Z" fill="#79B8FF"/>
<path d="M186.5 106H175.5L170.5 111.5L181 123.5L191.5 112L186.5 106Z" fill="#1B1F23"/>
<path fill-rule="evenodd" clip-rule="evenodd" d="M174.873 105.26C174.943 105.179 175.03 105.113 175.128 105.068C175.226 105.023 175.332 105 175.44 105H186.75C186.86 105 186.969 105.024 187.068 105.071C187.168 105.118 187.256 105.186 187.326 105.27L192.326 111.27C192.443 111.41 192.505 111.589 192.5 111.771C192.494 111.954 192.423 112.128 192.298 112.262L181.548 123.762C181.478 123.837 181.393 123.897 181.299 123.938C181.204 123.979 181.103 124 181 124C180.897 124 180.796 123.979 180.701 123.938C180.607 123.897 180.522 123.837 180.452 123.762L169.702 112.262C169.575 112.127 169.503 111.95 169.5 111.764C169.496 111.579 169.561 111.399 169.682 111.259L174.872 105.259L174.873 105.26ZM175.783 106.5L171.258 111.73L181 122.153L190.75 111.723L186.399 106.5H175.783Z" fill="#79B8FF"/>
</svg>
